<?xml version="1.0" encoding="iso-8859-1"?>
<!-- Generator: Adobe Illustrator 19.0.0, SVG Export Plug-In . SVG Version: 6.00 Build 0)  -->
<svg version="1.1" id="Capa_1" xmlns="http://www.w3.org/2000/svg" xmlns:xlink="http://www.w3.org/1999/xlink" x="0px" y="0px"
	 viewBox="0 0 464 464" style="enable-background:new 0 0 464 464;" xml:space="preserve">
<path style="fill:#CFDFE8;" d="M0,272h464v112H0V272z"/>
<g>
	<path style="fill:#D3843D;" d="M16,384h32v48H16V384z"/>
	<path style="fill:#D3843D;" d="M416,384h32v48h-32V384z"/>
</g>
<path style="fill:#CFDFE8;" d="M40,80h384v128H40V80z"/>
<path style="fill:#7FCAC9;" d="M48,208h368c17.673,0,32,14.327,32,32v32l0,0H16l0,0v-32C16,222.327,30.327,208,48,208z"/>
<g>
	<path style="fill:#195C85;" d="M112,128h64c17.673,0,32,14.327,32,32v16c0,17.673-14.327,32-32,32h-64c-17.673,0-32-14.327-32-32
		v-16C80,142.327,94.327,128,112,128z"/>
	<path style="fill:#195C85;" d="M288,128h64c17.673,0,32,14.327,32,32v16c0,17.673-14.327,32-32,32h-64c-17.673,0-32-14.327-32-32
		v-16C256,142.327,270.327,128,288,128z"/>
	<path style="fill:#195C85;" d="M64,360H32c-4.418,0-8-3.582-8-8s3.582-8,8-8h32c4.418,0,8,3.582,8,8S68.418,360,64,360z"/>
	<path style="fill:#195C85;" d="M432,360H96c-4.418,0-8-3.582-8-8s3.582-8,8-8h336c4.418,0,8,3.582,8,8S436.418,360,432,360z"/>
</g>
<g>
	<circle style="fill:#F6BF9B;" cx="64" cy="56" r="24"/>
	<circle style="fill:#F6BF9B;" cx="400" cy="56" r="24"/>
</g>
<g>
</g>
<g>
</g>
<g>
</g>
<g>
</g>
<g>
</g>
<g>
</g>
<g>
</g>
<g>
</g>
<g>
</g>
<g>
</g>
<g>
</g>
<g>
</g>
<g>
</g>
<g>
</g>
<g>
</g>
</svg>
