<?xml version="1.0" encoding="UTF-8"?>
<svg width="33px" height="17px" viewBox="0 0 33 17" version="1.1" xmlns="http://www.w3.org/2000/svg" xmlns:xlink="http://www.w3.org/1999/xlink">
    <!-- Generator: Sketch 58 (84663) - https://sketch.com -->
    <title>heading-decoration-dot</title>
    <desc>Created with Sketch.</desc>
    <g id="Fado-Desktop" stroke="none" stroke-width="1" fill="none" fill-rule="evenodd" opacity="0.5">
        <g id="Fado-Home-v2" transform="translate(-376.000000, -3108.000000)" fill="#1A1A1A" fill-rule="nonzero">
            <g id="Showcase" transform="translate(-1.000000, 3093.000000)">
                <g id="heading-decoration-dot" transform="translate(373.000000, 11.000000)">
                    <path d="M36.0031531,21.0031531 C36.5349867,20.9566494 36.9566494,20.5349867 37.0031531,20.0031531 C37.0031531,19.7379367 36.8977963,19.4835827 36.7102599,19.2960464 C36.5227236,19.10851 36.2683696,19.0031531 36.0031531,19.0031531 C35.7292382,18.9705728 35.4555098,19.065405 35.2604574,19.2604574 C35.065405,19.4555098 34.9705728,19.7292382 35.0031531,20.0031531 C35.0031531,20.5554379 35.4508684,21.0031531 36.0031531,21.0031531 Z" id="Path"></path>
                    <path d="M28.0031531,19.0031531 C27.7292382,18.9705728 27.4555098,19.065405 27.2604574,19.2604574 C27.065405,19.4555098 26.9705728,19.7292382 27.0031531,20.0031531 C27.0031531,20.2683696 27.10851,20.5227236 27.2960464,20.7102599 C27.4835827,20.8977963 27.7379367,21.0031531 28.0031531,21.0031531 C28.5349867,20.9566494 28.9566494,20.5349867 29.0031531,20.0031531 C29.0031531,19.4508684 28.5554379,19.0031531 28.0031531,19.0031531 L28.0031531,19.0031531 Z" id="Path"></path>
                    <path d="M20.0031531,19.0031531 C19.7292382,18.9705728 19.4555098,19.065405 19.2604574,19.2604574 C19.065405,19.4555098 18.9705728,19.7292382 19.0031531,20.0031531 C19.0031531,20.2683696 19.10851,20.5227236 19.2960464,20.7102599 C19.4835827,20.8977963 19.7379367,21.0031531 20.0031531,21.0031531 C20.5349867,20.9566494 20.9566494,20.5349867 21.0031531,20.0031531 C21.0031531,19.4508684 20.5554379,19.0031531 20.0031531,19.0031531 L20.0031531,19.0031531 Z" id="Path"></path>
                    <path d="M13.0031531,19.0031531 C12.7292382,18.9705728 12.4555098,19.065405 12.2604574,19.2604574 C12.065405,19.4555098 11.9705728,19.7292382 12.0031531,20.0031531 C12.0031531,20.5554379 12.4508684,21.0031531 13.0031531,21.0031531 C13.5349867,20.9566494 13.9566494,20.5349867 14.0031531,20.0031531 C14.0031531,19.4508684 13.5554379,19.0031531 13.0031531,19.0031531 L13.0031531,19.0031531 Z" id="Path"></path>
                    <path d="M5.00315315,21.0031531 C5.53498671,20.9566494 5.95664944,20.5349867 6.00315315,20.0031531 C6.00315315,19.4508684 5.5554379,19.0031531 5.00315315,19.0031531 C4.72923821,18.9705728 4.45550984,19.065405 4.26045744,19.2604574 C4.06540504,19.4555098 3.97057282,19.7292382 4.00315315,20.0031531 C4.00315315,20.5554379 4.4508684,21.0031531 5.00315315,21.0031531 Z" id="Path"></path>
                    <circle id="Oval" cx="36" cy="13" r="1"></circle>
                    <path d="M28.0031531,12.0031531 C27.7292382,11.9705728 27.4555098,12.065405 27.2604574,12.2604574 C27.065405,12.4555098 26.9705728,12.7292382 27.0031531,13.0031531 C27.0031531,13.2683696 27.10851,13.5227236 27.2960464,13.7102599 C27.4835827,13.8977963 27.7379367,14.0031531 28.0031531,14.0031531 C28.5349867,13.9566494 28.9566494,13.5349867 29.0031531,13.0031531 C29.0031531,12.4508684 28.5554379,12.0031531 28.0031531,12.0031531 Z" id="Path"></path>
                    <circle id="Oval" cx="20" cy="13" r="1"></circle>
                    <circle id="Oval" cx="13" cy="13" r="1"></circle>
                    <path d="M5.01375517,14.1526133 C5.32601002,14.1295267 5.6136293,13.9744657 5.8045341,13.7262894 C5.9954389,13.4781132 6.07153604,13.1603428 6.01375517,12.8526133 C6.01375517,12.3003286 5.56603992,11.8526133 5.01375517,11.8526133 C4.73984022,11.820033 4.46611185,11.9148652 4.27105946,12.1099176 C4.07600706,12.30497 3.98117484,12.5786984 4.01375517,12.8526133 C3.91535561,13.1642737 3.97546219,13.5043517 4.17473099,13.7634011 C4.37399979,14.0224506 4.68728205,14.1677781 5.01375517,14.1526133 L5.01375517,14.1526133 Z" id="Path"></path>
                    <circle id="Oval" cx="36" cy="5" r="1"></circle>
                    <path d="M28.0031531,4.00315315 C27.7292382,3.97057282 27.4555098,4.06540504 27.2604574,4.26045744 C27.065405,4.45550984 26.9705728,4.72923821 27.0031531,5.00315315 C27.0031531,5.26836964 27.10851,5.52272355 27.2960464,5.71025993 C27.4835827,5.89779631 27.7379367,6.00315315 28.0031531,6.00315315 C28.5349867,5.95664944 28.9566494,5.53498671 29.0031531,5.00315315 C29.0031531,4.73793666 28.8977963,4.48358275 28.7102599,4.29604637 C28.5227236,4.10850999 28.2683696,4.00315315 28.0031531,4.00315315 Z" id="Path"></path>
                    <circle id="Oval" cx="20" cy="5" r="1"></circle>
                    <circle id="Oval" cx="13" cy="5" r="1"></circle>
                    <path d="M5.00315315,6.00315315 C5.53498671,5.95664944 5.95664944,5.53498671 6.00315315,5.00315315 C6.00315315,4.4508684 5.5554379,4.00315315 5.00315315,4.00315315 C4.72923821,3.97057282 4.45550984,4.06540504 4.26045744,4.26045744 C4.06540504,4.45550984 3.97057282,4.72923821 4.00315315,5.00315315 C4.00315315,5.5554379 4.4508684,6.00315315 5.00315315,6.00315315 Z" id="Path"></path>
                </g>
            </g>
        </g>
    </g>
</svg>