<svg xmlns="http://www.w3.org/2000/svg" width="28" height="28" viewBox="0 0 28 28">
    <g fill="none" fill-rule="evenodd">
        <rect width="28" height="28" fill="#D75E63" rx="14"/>
        <path fill="#FFF" fill-rule="nonzero" d="M19.202 12.161c-.059-.105-.17-.17-.291-.17h-4.39l.737-5.619c.016-.155-.076-.3-.223-.353-.147-.052-.31.004-.395.134L9.302 15.5c-.064.104-.066.233-.007.34.06.105.171.17.292.17h4.324l-.583 5.628c-.012.155.083.297.23.346.147.049.308-.009.39-.14l5.25-9.345c.062-.103.064-.232.004-.337z"/>
    </g>
</svg>
