<?xml version="1.0" encoding="UTF-8"?>
<svg width="80px" height="20px" viewBox="0 0 80 20" version="1.1" xmlns="http://www.w3.org/2000/svg" xmlns:xlink="http://www.w3.org/1999/xlink">
    <!-- Generator: Sketch 58 (84663) - https://sketch.com -->
    <title>fls-deal</title>
    <desc>Created with Sketch.</desc>
    <defs>
        <linearGradient x1="0%" y1="46.875%" x2="100%" y2="53.125%" id="linearGradient-1">
            <stop stop-color="#FFAF00" offset="0%"></stop>
            <stop stop-color="#FF6B00" offset="100%"></stop>
        </linearGradient>
    </defs>
    <g id="Fado-Desktop" stroke="none" stroke-width="1" fill="none" fill-rule="evenodd">
        <g id="BF-Landing-opt-2" transform="translate(-253.000000, -1666.000000)">
            <g id="main-content" transform="translate(152.000000, 1283.000000)">
                <g id="section">
                    <g id="list-row" transform="translate(24.000000, 193.000000)">
                        <g id="prd-item">
                            <g id="discount-label" transform="translate(24.000000, 186.000000)">
                                <g id="fls-deal" transform="translate(53.000000, 4.000000)">
                                    <rect id="Rectangle" fill="url(#linearGradient-1)" x="0" y="0" width="80" height="20" rx="10"></rect>
                                    <path d="M26.592,9.104 L24.204,9.104 L24.204,6.884 L27.06,6.884 L27.06,5.6 L22.548,5.6 L22.548,14 L24.204,14 L24.204,10.388 L26.592,10.388 L26.592,9.104 Z M30.384,12.824 L30.132,12.824 C29.664,12.824 29.496,12.644 29.496,12.32 L29.496,5.6 L27.96,5.6 L27.96,12.32 C27.96,13.328 28.776,14 30.132,14 L30.384,14 L30.384,12.824 Z M32.448,9.68 L32.448,9.356 C32.448,8.936 32.82,8.696 33.336,8.696 C33.852,8.696 34.212,8.936 34.212,9.356 L34.212,10.064 L33.324,10.1 C31.92,10.16 30.912,10.88 30.912,12.032 L30.912,12.428 C30.912,13.532 31.656,14.12 32.7,14.12 C33.336,14.12 33.828,13.904 34.212,13.604 L34.212,14 L35.748,14 L35.748,9.452 C35.748,8.3 34.728,7.52 33.336,7.52 C31.932,7.52 30.924,8.3 30.924,9.452 L30.924,9.68 L32.448,9.68 Z M34.212,12.416 C34.212,12.752 33.828,12.944 33.336,12.944 C32.772,12.944 32.436,12.752 32.436,12.428 L32.436,11.96 C32.436,11.54 32.796,11.312 33.36,11.276 L34.212,11.24 L34.212,12.416 Z M39.072,7.52 C37.728,7.52 36.756,8.288 36.756,9.404 C36.756,10.172 37.164,10.796 37.92,11.12 L39.528,11.744 C39.852,11.876 40.032,12.08 40.032,12.356 C40.032,12.728 39.648,12.944 39.132,12.944 C38.592,12.944 38.208,12.716 38.208,12.332 L38.208,11.96 L36.684,11.96 L36.684,12.248 C36.684,13.352 37.692,14.12 39.096,14.12 C40.488,14.12 41.496,13.364 41.496,12.26 C41.496,11.492 41.028,10.832 40.272,10.508 L38.664,9.896 C38.388,9.788 38.208,9.572 38.208,9.284 C38.208,8.9 38.568,8.696 39.036,8.696 C39.528,8.696 39.876,8.936 39.876,9.308 L39.876,9.68 L41.4,9.68 L41.4,9.392 C41.4,8.288 40.44,7.52 39.072,7.52 Z M42.48,14 L44.016,14 L44.016,9.176 C44.052,8.876 44.412,8.696 44.904,8.696 C45.42,8.696 45.792,8.888 45.792,9.224 L45.792,14 L47.316,14 L47.316,9.224 C47.316,8.12 46.584,7.52 45.528,7.52 C44.892,7.52 44.388,7.748 44.016,8.036 L44.016,5.6 L42.48,5.6 L42.48,14 Z M51.144,14 L53.916,14 C55.584,14 56.76,13.064 56.76,11.708 L56.76,7.892 C56.76,6.536 55.584,5.6 53.916,5.6 L51.144,5.6 L51.144,14 Z M53.892,6.884 C54.612,6.884 55.116,7.232 55.116,7.796 L55.116,11.792 C55.116,12.356 54.612,12.716 53.892,12.716 L52.8,12.716 L52.8,6.884 L53.892,6.884 Z M57.84,12.188 C57.84,13.34 58.86,14.12 60.264,14.12 C61.668,14.12 62.688,13.34 62.688,12.188 L62.688,12.02 L61.164,12.02 L61.164,12.284 C61.164,12.704 60.792,12.944 60.264,12.944 C59.748,12.944 59.364,12.704 59.364,12.284 L59.364,11.348 L62.688,11.348 L62.688,9.452 C62.688,8.3 61.668,7.52 60.264,7.52 C58.86,7.52 57.84,8.3 57.84,9.452 L57.84,12.188 Z M60.264,8.696 C60.792,8.696 61.164,8.936 61.164,9.356 L61.164,10.172 L59.364,10.172 L59.364,9.356 C59.364,8.936 59.748,8.696 60.264,8.696 Z M65.088,9.68 L65.088,9.356 C65.088,8.936 65.46,8.696 65.976,8.696 C66.492,8.696 66.852,8.936 66.852,9.356 L66.852,10.064 L65.964,10.1 C64.56,10.16 63.552,10.88 63.552,12.032 L63.552,12.428 C63.552,13.532 64.296,14.12 65.34,14.12 C65.976,14.12 66.468,13.904 66.852,13.604 L66.852,14 L68.388,14 L68.388,9.452 C68.388,8.3 67.368,7.52 65.976,7.52 C64.572,7.52 63.564,8.3 63.564,9.452 L63.564,9.68 L65.088,9.68 Z M66.852,12.416 C66.852,12.752 66.468,12.944 65.976,12.944 C65.412,12.944 65.076,12.752 65.076,12.428 L65.076,11.96 C65.076,11.54 65.436,11.312 66,11.276 L66.852,11.24 L66.852,12.416 Z M71.904,12.824 L71.904,14 L71.652,14 C70.296,14 69.48,13.328 69.48,12.32 L69.48,5.6 L71.016,5.6 L71.016,12.32 C71.016,12.644 71.184,12.824 71.652,12.824 L71.904,12.824 Z" id="FlashDeal" fill="#FFFFFF" fill-rule="nonzero"></path>
                                    <polygon id="Path-2" fill="#FFFFFF" points="9.46511004 5 15.2 5 12.0734065 9.65094335 15.2 9.65094335 9.76414129 17.8 11.3408515 12.1724815 8 12.1724815"></polygon>
                                </g>
                            </g>
                        </g>
                    </g>
                </g>
            </g>
        </g>
    </g>
</svg>