<svg xmlns="http://www.w3.org/2000/svg" width="28" height="28" viewBox="0 0 28 28">
    <g fill="none" fill-rule="evenodd">
        <rect width="28" height="28" fill="#FFB632" rx="14"/>
        <g fill="#FFF" fill-rule="nonzero">
            <path d="M11.23 0H1.603C.72 0 0 .719 0 1.602v3.401c0 1.07.871 1.939 1.942 1.939.573 0 1.085-.255 1.44-.652.378.399.909.652 1.5.652.612 0 1.156-.271 1.535-.693.379.422.923.693 1.534.693.592 0 1.123-.253 1.5-.652.356.397.867.652 1.44.652 1.071 0 1.942-.87 1.942-1.939V1.602C12.833.719 12.113 0 11.23 0zM2.812 4.875v.128c0 .48-.39.87-.871.87-.482 0-.873-.39-.873-.87v-1.8h1.744v1.672zm3.069 0c0 .55-.449.999-1 .999-.55 0-1-.448-1-.999V3.204h2v1.671zm3.069 0c0 .55-.449.999-1 .999-.551 0-1-.448-1-.999V3.204h2v1.671zm2.813.128c0 .48-.391.87-.872.87-.48 0-.872-.39-.872-.87V3.204h1.744v1.8zM11.764 8.107v2.266c0 .295-.24.534-.535.534H1.604c-.294 0-.535-.24-.535-.534V8.107C.672 7.987.31 7.787 0 7.525v2.848c0 .883.72 1.602 1.604 1.602h9.625c.885 0 1.604-.719 1.604-1.602V7.525c-.31.262-.672.462-1.07.582z" transform="translate(7.583 8.167)"/>
        </g>
    </g>
</svg>
